<svg width="434" height="415" viewBox="0 0 434 415" fill="none" xmlns="http://www.w3.org/2000/svg">
<g clip-path="url(#clip0_181275_187117)">
<path d="M75.0004 307.5H44.9004C43.0004 307.5 41.5004 306.2 41.6004 304.6L43.3004 276.2H76.5004L78.2004 304.6C78.4004 306.1 76.9004 307.5 75.0004 307.5Z" fill="#1A74E2"/>
<path d="M144.801 331.5H114.701C112.801 331.5 111.301 330.2 111.401 328.6L113.101 300.2H146.301L148.001 328.6C148.201 330.1 146.701 331.5 144.801 331.5Z" fill="#1A74E2"/>
<path d="M358.502 307.5H388.602C390.502 307.5 392.002 306.2 391.902 304.6L390.202 276.2H357.002L355.302 304.6C355.202 306.1 356.702 307.5 358.502 307.5Z" fill="#1A74E2"/>
<path d="M288.701 331.5H318.801C320.701 331.5 322.201 330.2 322.101 328.6L320.401 300.2H287.201L285.501 328.6C285.401 330.1 286.801 331.5 288.701 331.5Z" fill="#1A74E2"/>
<path d="M217.001 9.48321e-05C119.801 -0.0999052 40.8008 78.9001 40.8008 176C40.8008 182 41.1008 187.9 41.7008 193.7C45.4008 230.4 60.4008 263.8 83.2008 290.4L120.601 302.3C86.9008 276.7 63.8008 238 58.9008 193.7C58.3008 187.9 57.9008 182 57.9008 176.1C57.9008 88.9001 128.601 17.3001 216.801 17.2001C304.801 17.3001 375.701 88.9001 375.701 176.1C375.701 182.1 375.401 187.9 374.701 193.7C369.801 237.9 346.701 276.6 313.201 302.3L350.501 290.4C373.301 263.8 388.301 230.4 392.001 193.7C392.501 188.3 392.801 182.7 392.901 177.2C393.401 79.4001 314.101 0.100095 217.001 9.48321e-05Z" fill="#1A74E2"/>
<path d="M209.7 317.7C205.4 317.1 201.4 315.9 197.6 314.3C189.3 310.7 182.4 305.2 176.3 298.7C169 290.9 163.3 282.1 158.5 272.7C154.9 265.7 151.9 258.4 149.4 250.9C149.2 250.4 149.1 250 149 249.5C157.1 245.3 199.1 238.8 209.8 240.1C209.7 265.8 209.7 291.7 209.7 317.7Z" fill="black"/>
<path d="M222.5 317.5C222.5 291.6 222.5 265.8 222.5 239.9C243 240.4 263.1 243.2 282.8 249C282 251.2 281.3 253.3 280.5 255.4C276.1 267.1 270.7 278.2 263.5 288.4C257.8 296.4 251.3 303.5 243.1 309.1C237 313.3 230.4 316.2 223.1 317.4C222.9 317.5 222.8 317.5 222.5 317.5Z" fill="black"/>
<path d="M209.799 188.2C209.799 201.2 209.799 214.1 209.799 227.2C187.899 227.8 166.399 230.9 145.499 237.3C142.599 230.7 137.399 195.8 138.099 188.2C161.999 188.2 185.799 188.2 209.799 188.2Z" fill="black"/>
<path d="M286.2 237.2C265.5 231 244.3 227.9 222.8 227.4C222.4 226.2 222.3 192.1 222.6 188.5C223.7 188.1 290.8 188 293.4 188.4C294.5 193.7 289.3 229.2 286.2 237.2Z" fill="black"/>
<path d="M331.7 258.1C321.1 251.1 309.9 245.7 298.1 241.3C300.4 232.6 302.3 223.9 303.6 215C304.9 206.2 305.7 197.3 306.2 188.3C323.1 188.3 340 188.3 357 188.3C354.9 213.8 346.4 236.9 331.7 258.1Z" fill="black"/>
<path d="M75.3008 188.2C92.1008 188.2 108.601 188.2 125.401 188.2C126.301 206.2 128.801 224 133.601 241.3C127.901 243.9 122.301 246.3 116.801 248.9C111.301 251.5 106.001 254.6 100.801 258.1C86.0008 237.1 77.6008 213.9 75.3008 188.2Z" fill="black"/>
<path d="M294.599 253C305.099 256.9 314.899 261.5 324.299 267.6C314.899 278.7 304.299 288.1 292.199 295.9C282.399 302.2 271.899 307.3 260.699 310.8C276.899 294.5 286.999 274.6 294.599 253Z" fill="black"/>
<path d="M145.5 116.3C166.4 122.6 187.8 125.8 209.6 126.3C210 127.6 210.1 171.4 209.8 175.3C208.6 175.7 142 175.8 138 175.5C136.1 169.3 141.7 125.2 145.5 116.3Z" fill="#3FA0EF"/>
<path d="M286.1 116.4C290.1 127.3 295.1 166.9 293.6 175.4C270 175.4 246.3 175.4 222.5 175.4C222.5 159.1 222.5 142.8 222.5 126.2C244.2 125.7 265.4 122.7 286.1 116.4Z" fill="#3FA0EF"/>
<path d="M298.1 112.4C309.9 108 321.1 102.6 331.7 95.5C348.4 119.5 357 146.1 357.5 175.4C340.4 175.4 323.6 175.4 306.5 175.4C306.3 164.8 305.7 154.2 304.3 143.6C302.9 133.2 300.8 122.8 298.1 112.4Z" fill="#3FA0EF"/>
<path d="M100.7 95.6001C106 99.1001 111.2 102.2 116.8 104.9C122.3 107.5 127.9 109.9 133.6 112.5C128 133 125.3 154 125.3 175.5C108.5 175.5 91.8004 175.5 74.9004 175.5C75.3004 146.2 84.0004 119.7 100.7 95.6001Z" fill="#3FA0EF"/>
<path d="M148.9 104.2C149.7 101.9 150.5 99.6999 151.3 97.3999C155.6 85.8999 161 74.8999 168.2 64.7999C174.1 56.4999 181 49.1999 189.6 43.5999C195.2 39.8999 201.3 37.2999 207.9 36.0999C208.4 35.9999 209 35.8999 209.5 35.8999C209.9 37.0999 210 110.7 209.7 113.4C201.8 115.1 159.8 108.8 148.9 104.2Z" fill="#3FA0EF"/>
<path d="M222.5 113.7C222.5 87.7 222.5 62 222.5 36C223.8 36.3 225.1 36.5 226.3 36.8C233.9 38.7 240.7 42.3 246.8 47.2C254.1 53 260.1 60 265.3 67.7C272.7 78.8 278.1 90.8 282.4 103.4C282.5 103.7 282.6 104.1 282.7 104.6C263 110.4 243 113.2 222.5 113.7Z" fill="#3FA0EF"/>
<path d="M260.6 42.8999C285.8 51.1999 306.8 65.6999 324.1 85.7999C321.7 88.5999 300.4 99.2999 294.5 100.6C290.8 89.8999 286.4 79.5999 280.8 69.7999C275.2 59.8999 268.6 50.8999 260.6 42.8999Z" fill="#3FA0EF"/>
<path d="M137.2 100.5C126.9 96.6997 117.3 91.9997 108 85.9997C116.4 75.9997 125.8 67.4997 136.4 60.1997C147 52.8997 158.3 47.1997 170.5 43.1997C162.6 51.1997 156.1 60.1997 150.6 69.7997C145.2 79.5997 140.8 89.7997 137.2 100.5Z" fill="#3FA0EF"/>
<path d="M108.1 267.7C117.3 261.7 127 257 137.2 253.2C144.6 274.6 154.7 294.2 170.7 310.5C145.9 302 125.2 287.7 108.1 267.7Z" fill="black"/>
<path d="M427.5 193.7V257.6C427.5 262.5 424.3 266.9 419.6 268.4L350.4 290.5L313.1 302.4L216.8 333L120.5 302.3L83.1 290.4L13.9 268.3C9.2 266.8 6 262.5 6 257.5V193.6H427.5V193.7Z" fill="white"/>
<path d="M6 193.7V263.2L216.8 333L426 263.2L427.5 193.7H6Z" fill="#0E2841"/>
<path d="M216.8 339.3L12 274.1C4.8 271.8 0 265.2 0 257.6V187.7H433.5V257.6C433.5 265.2 428.7 271.8 421.5 274.1L216.8 339.3ZM12 199.7V257.6C12 259.9 13.5 261.9 15.7 262.6L216.8 326.7L417.9 262.6C420.1 261.9 421.6 259.9 421.6 257.6V199.7H12Z" fill="#01558D"/>
<path d="M84.4004 217.6H103L124.5 257.7H106.9L103.7 250.8H83.6004L80.4004 257.7H62.9004L84.4004 217.6ZM88.2004 241.1H99.2004L93.7004 229.2L88.2004 241.1Z" fill="white"/>
<path d="M125.701 217.6H172.701V227.9H141.401V233H172.701V242.3H141.401V247.4H172.701V257.7H125.701V217.6Z" fill="white"/>
<path d="M216.7 217.6C227.7 217.5 235.9 226.7 235.8 237.7C235.9 248.6 227.7 257.9 216.7 257.8H181V217.7H216.7V217.6ZM213.8 230.3H196.7V245H213.8C217.9 245 220.2 241.7 220.2 237.7C220.1 233.6 217.8 230.3 213.8 230.3Z" fill="white"/>
<path d="M240.4 217.5H260L275.6 237.6L291.3 217.5H310.9V257.6H295.3V236.2L279.6 257.6H271.8L256.1 236.2V257.6H240.5V217.5H240.4Z" fill="white"/>
<path d="M343.801 233.1C355.001 233.7 370.701 234.4 370.701 244.5C370.701 256 357.601 258.7 343.501 258.7C329.401 258.7 317.801 257 316.301 244.5H332.701C334.501 247.6 338.601 248.4 343.501 248.4C348.401 248.4 354.301 247.6 354.301 244.5C354.301 242.7 349.401 242.5 343.101 242.2C331.901 241.6 316.201 240.9 316.201 230.8C316.201 219.3 329.301 216.6 343.401 216.6C357.501 216.7 369.101 218.3 370.601 230.8H354.201C352.401 227.6 348.301 226.9 343.401 226.9C338.501 226.9 332.601 227.6 332.601 230.8C332.601 232.5 337.501 232.8 343.801 233.1Z" fill="white"/>
<path d="M203.3 289.3C202.9 295.1 197.8 296.8 191.6 296.8C185.2 296.8 179.8 294.9 179.9 288.4V287.1C179.9 280.6 185.2 278.7 191.6 278.7C197.8 278.7 202.9 280.5 203.3 286.2H196.4C195.8 284.5 193.9 284.1 191.6 284.1C188.9 284.1 186.5 284.6 186.6 287.5V287.9C186.6 290.7 188.9 291.2 191.6 291.3C193.9 291.3 195.8 290.9 196.4 289.2H203.3V289.3Z" fill="white"/>
<path d="M228.3 289.3C227.9 295.1 222.8 296.8 216.6 296.8C210.2 296.8 204.8 294.9 204.9 288.4V287.1C204.9 280.6 210.2 278.7 216.6 278.7C222.8 278.7 227.9 280.5 228.3 286.2H221.4C220.8 284.5 218.9 284.1 216.6 284.1C213.9 284.1 211.5 284.6 211.6 287.5V287.9C211.6 290.7 213.9 291.2 216.6 291.3C218.9 291.3 220.8 290.9 221.4 289.2H228.3V289.3Z" fill="white"/>
<path d="M236.501 279.2H244.501L253.701 296.4H246.201L244.801 293.5H236.201L234.801 296.4H227.301L236.501 279.2ZM238.201 289.3H242.901L240.501 284.2L238.201 289.3Z" fill="white"/>
<path d="M167.1 292.8C170.137 292.8 172.6 290.338 172.6 287.3C172.6 284.263 170.137 281.8 167.1 281.8C164.062 281.8 161.6 284.263 161.6 287.3C161.6 290.338 164.062 292.8 167.1 292.8Z" fill="white"/>
<path d="M266.5 292.8C269.538 292.8 272 290.338 272 287.3C272 284.263 269.538 281.8 266.5 281.8C263.462 281.8 261 284.263 261 287.3C261 290.338 263.462 292.8 266.5 292.8Z" fill="white"/>
</g>
<defs>
<clipPath id="clip0_181275_187117">
<rect width="433.5" height="414.5" fill="white"/>
</clipPath>
</defs>
</svg>
