<svg width="12" height="12" viewBox="0 0 12 12" fill="none" xmlns="http://www.w3.org/2000/svg">
<path d="M3.31667 8.33333L5.09583 6.55417L6.2625 7.72083L8.33333 5.66458V6.58333H9.5V3.66667H6.58333V4.83333H7.50208L6.2625 6.07292L5.09583 4.90625L2.5 7.51667L3.31667 8.33333ZM1.91667 11.25C1.59583 11.25 1.32108 11.1357 1.09242 10.907C0.863751 10.6783 0.749612 10.4038 0.750001 10.0833V1.91667C0.750001 1.59583 0.864334 1.32108 1.093 1.09242C1.32167 0.863751 1.59622 0.749612 1.91667 0.750001H10.0833C10.4042 0.750001 10.6789 0.864334 10.9076 1.093C11.1363 1.32167 11.2504 1.59622 11.25 1.91667V10.0833C11.25 10.4042 11.1357 10.6789 10.907 10.9076C10.6783 11.1363 10.4038 11.2504 10.0833 11.25H1.91667ZM1.91667 10.0833H10.0833V1.91667H1.91667V10.0833Z" fill="black"/>
</svg>
