<svg width="16" height="18" viewBox="0 0 16 18" fill="none" xmlns="http://www.w3.org/2000/svg">
<path d="M15.7863 3.45532C15.715 3.3776 15.6277 3.31476 15.5298 3.27073C15.4319 3.22671 15.3256 3.20245 15.2174 3.19947C13.5369 3.15752 11.4104 1.44203 10.0045 0.768829C9.13602 0.354285 8.56267 0.0809523 8.13211 0.00894899C8.04468 -0.00321288 7.95585 -0.00297732 7.86849 0.00964805C7.43793 0.0816514 6.86458 0.354985 5.99686 0.769528C4.59093 1.44203 2.46447 3.15752 0.783952 3.19947C0.675704 3.2026 0.569283 3.22693 0.471287 3.27094C0.373291 3.31495 0.285808 3.37771 0.21426 3.45532C0.065959 3.6155 -0.0105567 3.82485 0.0011745 4.03834C0.362175 11.045 2.99462 15.3813 7.61367 17.9014C7.73376 17.9664 7.86703 18 7.99957 18C8.1321 18 8.26538 17.9664 8.3862 17.9014C13.0052 15.3813 15.637 11.045 15.9987 4.03834C16.0111 3.82489 15.9348 3.61538 15.7863 3.45532ZM12.1134 6.21102L8.21558 11.7022C8.07572 11.8993 7.85605 12.03 7.63857 12.03C7.42036 12.03 7.17798 11.9161 7.02494 11.77L4.27753 9.14638C4.18783 9.06043 4.13747 8.94405 4.13747 8.82272C4.13747 8.70139 4.18783 8.585 4.27753 8.49905L4.95633 7.84963C5.04655 7.76433 5.16839 7.71648 5.29536 7.71648C5.42233 7.71648 5.54417 7.76433 5.63439 7.84963L7.42109 9.55534L10.5251 5.18131C10.5969 5.08121 10.7073 5.01231 10.8322 4.98966C10.957 4.967 11.0862 4.99242 11.1915 5.06037L11.986 5.57488C12.0909 5.64333 12.1632 5.74866 12.1871 5.86786C12.211 5.98706 12.1845 6.11043 12.1134 6.21102Z" fill="black" fill-opacity="0.85"/>
</svg>
